IKResults
version=1
nRows=10
nColumns=63
inDegrees=yes

Units are S.I. units (second, meters, Newtons, ...)
If the header above contains a line with 'inDegrees', this indicates whether rotational values are in degrees (yes) or radians (no).

endheader
time	pelvis_tilt	pelvis_list	pelvis_rotation	pelvis_tx	pelvis_ty	pelvis_tz	hip_flexion_r	hip_adduction_r	hip_rotation_r	knee_angle_r	knee_angle_r_beta	ankle_angle_r	subtalar_angle_r	mtp_angle_r	hip_flexion_l	hip_adduction_l	hip_rotation_l	knee_angle_l	knee_angle_l_beta	ankle_angle_l	subtalar_angle_l	mtp_angle_l	L5_S1_Flex_Ext	L5_S1_Lat_Bending	L5_S1_axial_rotation	L4_L5_Flex_Ext	L4_L5_Lat_Bending	L4_L5_axial_rotation	L3_L4_Flex_Ext	L3_L4_Lat_Bending	L3_L4_axial_rotation	L2_L3_Flex_Ext	L2_L3_Lat_Bending	L2_L3_axial_rotation	L1_L2_Flex_Ext	L1_L2_Lat_Bending	L1_L2_axial_rotation	L1_T12_Flex_Ext	L1_T12_Lat_Bending	L1_T12_axial_rotation	Abs_r3	Abs_r2	Abs_r1	Abs_t1	Abs_t2	neck_flexion	neck_bending	neck_rotation	arm_flex_r	arm_add_r	arm_rot_r	elbow_flex_r	pro_sup_r	wrist_flex_r	wrist_dev_r	arm_flex_l	arm_add_l	arm_rot_l	elbow_flex_l	pro_sup_l	wrist_flex_l	wrist_dev_l
      6.03333333	     64.42265535	     46.11128951	     14.80422633	     -0.96689135	      0.69509817	     -0.19515699	     -0.12147817	    -14.27295435	     -5.62842286	     74.29554830	      1.29670194	     14.85083715	    -19.30705406	      0.00000000	     -4.20951070	    -22.27220640	    -25.39541643	     74.53440241	      1.30087073	      4.19714251	    -19.23984052	      0.00000000	     -9.95768827	     -0.09318915	      1.25203074	    -18.49242289	     -0.12394157	      1.33028266	    -16.35948606	     -0.22658011	      1.33028266	    -11.38064192	     -0.22658011	      1.09552689	     -9.24670933	     -0.19003132	      1.01727497	     -5.68982308	     -0.14435000	      0.93902305	    -71.12677154	     -1.05417433	      6.96341935	      0.00000000	      0.00000000	     16.41152328	      3.17837703	    -24.04414893	      0.77452436	    -41.79120575	      5.04299817	     86.93277601	     89.99559364	      0.00000000	      0.00000000	    -10.14436343	    -23.63886224	    -19.90048750	    100.55632917	     89.99559364	      0.00000000	      0.00000000
      6.06666667	     64.42892755	     46.11022250	     14.80566670	     -0.96682372	      0.69511332	     -0.19513247	     -0.12019312	    -14.27166165	     -5.62869751	     74.29496293	      1.29669172	     14.85249606	    -19.27320431	      0.00000000	     -4.20883652	    -22.27133553	    -25.39543233	     74.53465261	      1.30087509	      4.19647000	    -19.20938199	      0.00000000	     -9.95760849	     -0.09316820	      1.25190103	    -18.49227472	     -0.12391371	      1.33014485	    -16.35935498	     -0.22652917	      1.33014485	    -11.38055074	     -0.22652917	      1.09541340	     -9.24663524	     -0.18998860	      1.01716959	     -5.68977749	     -0.14431754	      0.93892577	    -71.12620166	     -1.05393733	      6.96269797	      0.00000000	      0.00000000	     16.40998046	      3.17812386	    -24.04316811	      0.77438559	    -41.79064923	      5.04275235	     86.93254225	     89.99559364	      0.00000000	      0.00000000	    -10.14481992	    -23.63858184	    -19.90069914	    100.55604694	     89.99559364	      0.00000000	      0.00000000
      6.10000000	     64.44827943	     46.09689179	     14.80177905	     -0.96694344	      0.69506638	     -0.19515944	     -0.13556820	    -14.24487026	     -5.62410886	     74.26285871	      1.29613140	     14.95131536	    -19.32373294	      0.00000000	     -4.21768552	    -22.31790114	    -25.50025311	     74.55472135	      1.30122536	      4.16770636	    -19.29579943	      0.00000000	     -9.96075324	     -0.09025663	      1.24552427	    -18.49811484	     -0.12004132	      1.32336954	    -16.36452149	     -0.21944997	      1.32336954	    -11.38414487	     -0.21944997	      1.08983373	     -9.24955546	     -0.18405132	      1.01198847	     -5.69157440	     -0.13980752	      0.93414320	    -71.14866429	     -1.02100104	      6.92723232	      0.00000000	      0.00000000	     16.39923413	      3.15305197	    -24.02239947	      0.82060673	    -41.78893517	      5.00390729	     86.92434571	     89.99559364	      0.00000000	      0.00000000	    -10.16217899	    -23.62192053	    -19.91619665	    100.55961580	     89.99559364	      0.00000000	      0.00000000
      6.13333333	     64.84854942	     45.49542786	     13.59350483	     -0.96568619	      0.69510357	     -0.19402536	      0.08697561	    -13.42509525	     -4.60730445	     74.27270064	      1.29630317	     14.97202804	    -19.35323691	      0.00000000	     -4.97925607	    -23.12218699	    -26.80281135	     74.51228860	      1.30048477	      4.09672101	    -19.28141531	      0.00000000	     -9.97125240	     -0.09939347	      1.43090119	    -18.51761283	     -0.13219332	      1.52033252	    -16.38177057	     -0.24166529	      1.52033252	    -11.39614437	     -0.24166529	      1.25203854	     -9.25930498	     -0.20268317	      1.16260722	     -5.69757362	     -0.15396049	      1.07317589	    -71.22365878	     -1.12435882	      7.95824316	      0.00000000	      0.00000000	     16.34133227	      2.98584871	    -23.66951392	      1.00485322	    -41.97439112	      5.22994129	     86.90710501	     89.99559364	      0.00000000	      0.00000000	    -10.28301950	    -23.39868192	    -20.04763001	    100.56486617	     89.99559364	      0.00000000	      0.00000000
      6.16666667	     64.85120570	     45.49667544	     13.59448982	     -0.96567632	      0.69510629	     -0.19399393	      0.08861670	    -13.42458947	     -4.60659557	     74.27217523	      1.29629400	     14.97309371	    -19.31445642	      0.00000000	     -4.97897734	    -23.12062522	    -26.80283051	     74.51229712	      1.30048492	      4.09627321	    -19.24616793	      0.00000000	     -9.97146471	     -0.09919150	      1.43067796	    -18.51800711	     -0.13192470	      1.52009533	    -16.38211937	     -0.24117422	      1.52009533	    -11.39638702	     -0.24117422	      1.25184321	     -9.25950213	     -0.20227132	      1.16242584	     -5.69769494	     -0.15364764	      1.07300847	    -71.22517528	     -1.12207414	      7.95700161	      0.00000000	      0.00000000	     16.33946125	      2.98572550	    -23.66864689	      1.00478177	    -41.97487249	      5.22928784	     86.90642406	     89.99559364	      0.00000000	      0.00000000	    -10.28467866	    -23.39983865	    -20.04835437	    100.56442891	     89.99559364	      0.00000000	      0.00000000
      6.20000000	     64.85729801	     45.51332690	     13.61458454	     -0.96591228	      0.69505972	     -0.19405851	      0.08431469	    -13.43284457	     -4.58324485	     74.26697358	      1.29620321	     15.00358830	    -19.30454693	      0.00000000	     -4.98002803	    -23.11526346	    -26.84010049	     74.51251115	      1.30048865	      4.09061716	    -19.23116227	      0.00000000	     -9.97663937	     -0.09583630	      1.42279013	    -18.52761698	     -0.12746229	      1.51171451	    -16.39062083	     -0.23301639	      1.51171451	    -11.40230114	     -0.23301639	      1.24494136	     -9.26430732	     -0.19542939	      1.15601698	     -5.70065174	     -0.14845044	      1.06709259	    -71.26213737	     -1.08411945	      7.91313184	      0.00000000	      0.00000000	     16.33362285	      2.97980688	    -23.66449950	      1.03364286	    -42.00317427	      5.19989870	     86.89556140	     89.99559364	      0.00000000	      0.00000000	    -10.30655065	    -23.41435085	    -20.05382969	    100.56396151	     89.99559364	      0.00000000	      0.00000000
      6.23333333	     64.79137813	     45.55880174	     13.52890398	     -0.96631323	      0.69492898	     -0.19401733	      0.20292560	    -13.48951076	     -4.38377904	     74.25417860	      1.29597990	     14.91875715	    -19.36249584	      0.00000000	     -5.02276619	    -23.02217896	    -27.06444123	     74.45280531	      1.29944659	      3.98952465	    -19.31060651	      0.00000000	     -9.97763853	     -0.10879491	      1.40638376	    -18.52947252	     -0.14469723	      1.49428275	    -16.39226235	     -0.26452395	      1.49428275	    -11.40344308	     -0.26452395	      1.23058579	     -9.26523514	     -0.22185458	      1.14268681	     -5.70122266	     -0.16852332	      1.05478782	    -71.26927429	     -1.23070979	      7.82188457	      0.00000000	      0.00000000	     16.36855921	      2.75026276	    -23.47678230	      1.30228926	    -42.03318526	      5.27645236	     86.79360529	     89.99559364	      0.00000000	      0.00000000	    -10.36003360	    -23.31313358	    -20.15939178	    100.58597288	     89.99559364	      0.00000000	      0.00000000
      6.26666667	     64.78918685	     45.56434628	     13.52979188	     -0.96632840	      0.69491994	     -0.19400821	      0.20398763	    -13.48977189	     -4.38184418	     74.25391738	      1.29597534	     14.91926164	    -19.30611084	      0.00000000	     -5.02377459	    -23.02152067	    -27.06277014	     74.45294453	      1.29944902	      3.98962219	    -19.25797307	      0.00000000	     -9.97777351	     -0.10869680	      1.40628759	    -18.52972319	     -0.14456674	      1.49418057	    -16.39248411	     -0.26428539	      1.49418057	    -11.40359735	     -0.26428539	      1.23050165	     -9.26536049	     -0.22165451	      1.14260867	     -5.70129979	     -0.16837134	      1.05471570	    -71.27023843	     -1.22959991	      7.82134971	      0.00000000	      0.00000000	     16.36614865	      2.75042616	    -23.47536606	      1.30498000	    -42.03571270	      5.27562372	     86.79341701	     89.99559364	      0.00000000	      0.00000000	    -10.36213394	    -23.31268698	    -20.15873094	    100.58557118	     89.99559364	      0.00000000	      0.00000000
      6.30000000	     64.76247774	     45.59245123	     13.56775310	     -0.96675985	      0.69482465	     -0.19420908	      0.22619709	    -13.50064561	     -4.30112758	     74.23873388	      1.29571034	     14.92461884	    -19.34917702	      0.00000000	     -5.01532703	    -22.99145370	    -27.13465308	     74.44467180	      1.29930463	      3.99279897	    -19.28535899	      0.00000000	     -9.97967716	     -0.10707017	      1.38750025	    -18.53325846	     -0.14240333	      1.47421902	    -16.39561161	     -0.26033041	      1.47421902	    -11.40577303	     -0.26033041	      1.21406272	     -9.26712822	     -0.21833749	      1.12734396	     -5.70238753	     -0.16585169	      1.04062519	    -71.28383602	     -1.21119917	      7.71686016	      0.00000000	      0.00000000	     16.37339779	      2.73884762	    -23.45394943	      1.42321875	    -42.12458443	      5.23177115	     86.78103309	     89.99559364	      0.00000000	      0.00000000	    -10.40007159	    -23.28426203	    -20.12030791	    100.60307802	     89.99559364	      0.00000000	      0.00000000
      6.33333333	     64.69293490	     45.60880789	     13.54440171	     -0.96726576	      0.69467661	     -0.19423935	      0.34082820	    -13.52515544	     -4.14653571	     74.22163542	      1.29541191	     14.76217601	    -19.36907596	      0.00000000	     -4.99330713	    -22.89485042	    -27.19784503	     74.40274859	      1.29857294	      3.95360303	    -19.30535198	      0.00000000	     -9.98052110	     -0.11177029	      1.37491391	    -18.53482573	     -0.14865448	      1.46084603	    -16.39699811	     -0.27175828	      1.46084603	    -11.40673756	     -0.27175828	      1.20304967	     -9.26791189	     -0.22792197	      1.11711755	     -5.70286976	     -0.17313218	      1.03118543	    -71.28986416	     -1.26436785	      7.64685868	      0.00000000	      0.00000000	     16.45101173	      2.61572757	    -23.31208832	      1.64275697	    -42.18767013	      5.29847701	     86.72481573	     89.99559364	      0.00000000	      0.00000000	    -10.44805776	    -23.19901929	    -20.11865756	    100.66400058	     89.99559364	      0.00000000	      0.00000000
